# xmcd
#
# Track frame offsets:
# 150
# 17708
# 34200
# 58063
# 77356
# 93696
# 108110
# 123988
# 141522
# 161029
#
# Disc length: 3234 seconds
#
#
# Revision: 0
# Processed by: cddbd v1.5.1PL0 Copyright (c) Steve Scherf et al.
# Submitted via: FreeRIP 2.941 
#
DISCID=810ca00a
DTITLE=Chris Smither - Up On The Lowdown
DYEAR=1995
DGENRE=Blues
TTITLE0=Link Of Chain
TTITLE1='Deed I Do
TTITLE2=What Was It You Wanted
TTITLE3=Up On The Lowdown
TTITLE4=Bittersweet
TTITLE5=Talk Memphis
TTITLE6=Can't Shake These Blues
TTITLE7=I Am The Ride
TTITLE8=Time To Go Home
TTITLE9=Jailhouse Blues
EXTD=
EXTT0=
EXTT1=
EXTT2=
EXTT3=
EXTT4=
EXTT5=
EXTT6=
EXTT7=
EXTT8=
EXTT9=
PLAYORDER=
